# xmcd
#
# Track frame offsets: 
#        150
#        17919
#        32409
#        52582
#        60684
#        78270
#        95392
#        115312
#        132344
#        157987
#        169687
#        182553
#        198858
#
# Disc length: 2894 seconds
#
# Revision: 0
# Processed by: cddbd v1.5.2PL0 Copyright (c) Steve Scherf et al.
# Submitted via: ExactAudioCopy v1.0b4
#
DISCID=960b4c0d
DTITLE=David Burgin - No Money Down
DYEAR=2016
DGENRE=Blues
TTITLE0=Just Your Fool
TTITLE1=Greaseful
TTITLE2=Live the Life I Love
TTITLE3=Theme for an Unfilmed Movie
TTITLE4=Kathleen Kinda Blues
TTITLE5=Black Cat Bone
TTITLE6=Mississippi Mojo
TTITLE7=Chillin'
TTITLE8=No Money Down
TTITLE9=Country Thing 2.0
TTITLE10=My Baby
TTITLE11=30 Days
TTITLE12=Desert Horizon
EXTD=
EXTT0=
EXTT1=
EXTT2=
EXTT3=
EXTT4=
EXTT5=
EXTT6=
EXTT7=
EXTT8=
EXTT9=
EXTT10=
EXTT11=
EXTT12=
PLAYORDER=
